# xmcd
# 
# Track frame offsets:
#	150
#	13725
#	22050
#	35400
#	53925
#	69225
#	80475
#	93000
#	108575
#	117625
#	132025
#	151000
#
# Disc length: 2413 seconds
#
# Revision: 1
# Processed by: cddbd v1.4PL0 Copyright (c) Steve Scherf et al.
# Submitted via: Audio-CD-Archiv 2.10.446
#
DISCID=93096b0c
DTITLE=Fleich and Fleisch - Vorarlberger Liedermacher - Kindsköpf
DYEAR=1900
DGENRE=country
TTITLE0=Kindsköpf
TTITLE1=Wenn i künnt
TTITLE2=Vrspocha
TTITLE3=S'Ländle
TTITLE4=Karolin
TTITLE5=Vorarlbärger
TTITLE6=Hai Sossaiiti
TTITLE7=Bausparvertragblues
TTITLE8=Stand uf mi
TTITLE9=Adelheid
TTITLE10=Flüga lo
TTITLE11=Wihnächta [Weihnachten]
EXTD=
EXTT0=
EXTT1=
EXTT2=
EXTT3=
EXTT4=
EXTT5=
EXTT6=
EXTT7=
EXTT8=
EXTT9=
EXTT10=
EXTT11=
PLAYORDER=
